HIERARCHY
ROOT ui
{
	 OFFSET 0 0 0
	 CHANNELS 3 XPosition YPosition Z Position
	 EndSite
	 {
	 OFFSET 0 -1 0
	 }
}
ROOT li
{
	 OFFSET 0 0 0
	 CHANNELS 3 XPosition YPosition Z Position
	 EndSite
	 {
	 OFFSET 0 -1 0
	 }
}
ROOT ul
{
	 OFFSET 0 0 0
	 CHANNELS 3 XPosition YPosition Z Position
	 EndSite
	 {
	 OFFSET 0 -1 0
	 }
}
ROOT ll
{
	 OFFSET 0 0 0
	 CHANNELS 3 XPosition YPosition Z Position
	 EndSite
	 {
	 OFFSET 0 -1 0
	 }
}
ROOT tt
{
	 OFFSET 0 0 0
	 CHANNELS 3 XPosition YPosition Z Position
	 EndSite
	 {
	 OFFSET 0 -1 0
	 }
}
ROOT tb
{
	 OFFSET 0 0 0
	 CHANNELS 3 XPosition YPosition Z Position
	 EndSite
	 {
	 OFFSET 0 -1 0
	 }
}
ROOT td
{
	 OFFSET 0 0 0
	 CHANNELS 3 XPosition YPosition Z Position
	 EndSite
	 {
	 OFFSET 0 -1 0
	 }
}
ROOT v
{
	 OFFSET 0 0 0
	 CHANNELS 3 XPosition YPosition Z Position
	 EndSite
	 {
	 OFFSET 0 -1 0
	 }
}
ROOT bn
{
	 OFFSET 0 0 0
	 CHANNELS 3 XPosition YPosition Z Position
	 EndSite
	 {
	 OFFSET 0 -1 0
	 }
}
MOTION
Frames: 19
Frame Time: 0.002
0.003963555097579956	-0.0017936450242996215	0		0.539163818359375	-2.462158203125	0		-1.0496072998046875	0.11228235626220703	0		-0.61697900390625	-2.76475	0		2.30533154296875	-1.4876507568359374	0		3.633136474609375	-0.6122998046875	0		4.8984697265625	-0.29616461181640624	0		6.00546630859375	0.5201290283203125	0		-0.1936837158203125	5.8683681640625	0		
6.206560134887695E-4	-0.005488781929016113	0		0.5416206665039063	-2.481928955078125	0		-1.1209581298828124	0.1084888687133789	0		-0.6423311157226562	-2.77015478515625	0		2.31014306640625	-1.4804407958984376	0		3.653701416015625	-0.6232942504882812	0		4.90508740234375	-0.30296551513671877	0		6.01415966796875	0.51930712890625	0		-0.26216046142578125	5.8575400390625	0		
-0.006492513179779053	0.007877745151519776	0		0.54167578125	-2.456655029296875	0		-1.0311070556640625	0.11855747222900391	0		-0.6504343872070313	-2.756777099609375	0		2.317007080078125	-1.469252685546875	0		3.653416259765625	-0.6230070190429687	0		4.91480029296875	-0.3028072509765625	0		6.0089912109375	0.5286686401367188	0		-0.179182373046875	5.8787041015625	0		
0.003104696989059448	-9.693509936332703E-4	0		0.515426513671875	-2.45402197265625	0		-1.117474853515625	0.11298933410644531	0		-0.6507122192382813	-2.75649267578125	0		2.35572412109375	-1.4694840087890626	0		3.68074609375	-0.6520870971679688	0		4.923224609375	-0.32463262939453125	0		6.00460205078125	0.5210170288085938	0		-0.19460487365722656	5.8691904296875	0		
0.0028314359188079835	-6.715360283851623E-4	0		0.5660537719726563	-2.461404296875	0		-1.044807861328125	0.10831434631347656	0		-0.6469342041015625	-2.752248046875	0		2.355449951171875	-1.4691876220703124	0		3.676406005859375	-0.65673779296875	0		4.9198583984375	-0.33129727172851564	0		6.0043291015625	0.52131103515625	0		-0.19487443542480468	5.86948828125	0		
-0.01036214542388916	0.004812328815460205	0		0.5108302307128906	-2.457361328125	0		-1.083065673828125	0.10913523864746094	0		-0.6472034912109375	-2.751935302734375	0		2.387301513671875	-1.460311279296875	0		3.696994140625	-0.6677166748046875	0		4.92651513671875	-0.3370933532714844	0		5.99917626953125	0.5296707763671875	0		-0.19511911010742186	5.8697998046875	0		
-7.292609810829162E-4	-0.003995918989181518	0		0.5740714721679687	-2.494890869140625	0		-1.0833111572265626	0.1094653549194336	0		-0.6345587768554688	-2.758780517578125	0		2.3651162109375	-1.4547064208984375	0		3.688651611328125	-0.674304443359375	0		4.92806689453125	-0.35182040405273435	0		6.007705078125	0.5128447265625	0		-0.262501708984375	5.8580205078125	0		
0.0020973999500274658	3.019169867038727E-4	0		0.5519208374023438	-2.487263916015625	0		-1.0703909912109375	0.12063752746582031	0		-0.6277007446289062	-2.750531494140625	0		2.408981201171875	-1.44697509765625	0		3.74322802734375	-0.6887285766601563	0		4.9378232421875	-0.3526544189453125	0		6.01258935546875	0.5210682373046875	0		-0.21149960327148437	5.8716787109375	0		
0.06999518585205078	0.007744640827178955	0		0.5670782470703125	-2.4581201171875	0		-1.0457420654296874	0.1096678695678711	0		-0.6259058227539063	-2.748199462890625	0		2.41590966796875	-1.4357423095703126	0		3.723899169921875	-0.6971602783203125	0		4.94453564453125	-0.35844635009765624	0		6.00728515625	0.5134257202148438	0		-0.19565647888183593	5.8708193359375	0		
0.0017139899730682373	0.0010208070278167724	0		0.5375347900390625	-2.48237060546875	0		-1.0459210205078124	0.11004767608642578	0		-0.5921910400390625	-2.753279541015625	0		2.4157109375	-1.435406494140625	0		3.722482666015625	-0.713826171875	0		4.9471767578125	-0.371181640625	0		6.007111328125	0.5137158813476562	0		-0.19576223754882813	5.8711884765625	0		
-0.005544118881225586	-0.005504946231842041	0		0.5622637329101563	-2.487333251953125	0		-1.0501375732421876	0.10649701690673828	0		-0.628353515625	-2.749408935546875	0		2.421617919921875	-1.4281434326171876	0		3.72819921875	-0.7215811767578125	0		4.93983251953125	-0.38378024291992185	0		6.00284716796875	0.5060609436035156	0		-0.20998617553710938	5.860759765625	0		
-0.02764940071105957	-8.178679943084717E-4	0		0.5470221557617188	-2.489748779296875	0		-1.0892930908203124	0.10743003845214844	0		-0.6224806518554687	-2.7430869140625	0		2.428566650390625	-1.41788671875	0		3.737945068359375	-0.72738525390625	0		4.93555859375	-0.391416748046875	0		6.0039091796875	0.5223372802734375	0		-0.22899296569824218	5.86541015625	0		
-0.001831928014755249	-0.0017622870206832886	0		0.548835693359375	-2.487382080078125	0		-1.123401123046875	0.11231075286865234	0		-0.6915579833984375	-2.731745361328125	0		2.40056396484375	-1.403153076171875	0		3.7377646484375	-0.72705078125	0		4.9453701171875	-0.39223876953125	0		6.01175146484375	0.5225221557617188	0		-0.22905038452148438	5.865818359375	0		
0.0010418260097503661	0.00261299204826355	0		0.5656851196289062	-2.481206298828125	0		-1.050638916015625	0.10776777648925781	0		-0.6178530883789063	-2.736310546875	0		2.438365966796875	-1.4022965087890624	0		3.74935400390625	-0.7428698120117188	0		4.9362236328125	-0.3888013916015625	0		6.01158251953125	0.5228173217773437	0		-0.19504812622070314	5.87078125	0		
-0.002209594011306763	-9.184200167655945E-4	0		0.5634082641601562	-2.48276318359375	0		-1.0548880615234375	0.10427197265625	0		-0.6520381469726563	-2.730412109375	0		2.43430078125	-1.3898671875	0		3.7621259765625	-0.7436959838867188	0		4.94293603515625	-0.39457122802734373	0		6.0062880859375	0.5151867065429687	0		-0.1951223907470703	5.87121337890625	0		
-0.03246737289428711	-0.003073533058166504	0		0.594916015625	-2.498765869140625	0		-1.064199462890625	0.09785654449462891	0		-0.6163607177734375	-2.73344384765625	0		2.43225341796875	-1.3744542236328126	0		3.742770263671875	-0.7520800170898437	0		4.93861376953125	-0.4011832580566406	0		6.0060791015625	0.5154971313476563	0		-0.19618890380859375	5.87367041015625	0		
-0.0067136788368225096	-0.002972214937210083	0		0.5457578735351563	-2.487665283203125	0		-1.14243408203125	0.09938561248779297	0		-0.6875489501953125	-2.724019775390625	0		2.443965087890625	-1.375216796875	0		3.76138671875	-0.7609647216796875	0		4.940158203125	-0.41586349487304686	0		6.0058466796875	0.5158195190429687	0		-0.22841122436523437	5.86656005859375	0		
1.1451999843120575E-4	0.0043974161148071286	0		0.5754636840820313	-2.485618408203125	0		-1.060664794921875	0.10176448822021485	0		-0.5959620971679688	-2.730784912109375	0		2.45385888671875	-1.3609403076171875	0		3.77900830078125	-0.7678224487304688	0		4.9388564453125	-0.4174894714355469	0		6.01069921875	0.5240888671875	0		-0.22758004760742187	5.86501611328125	0		
-1.686359941959381E-4	0.004875992774963379	0		0.57513037109375	-2.4851513671875	0		-1.0649862060546875	0.09931893920898438	0		-0.6421199340820313	-2.716672119140625	0		2.441037353515625	-1.3243382568359374	0		3.766697265625	-0.7682572631835938	0		4.9574951171875	-0.4223674926757813	0		6.00531884765625	0.516514892578125	0		-0.22871792602539062	5.8675126953125	0		
